<?xml version="1.0" standalone="no"?>
<!DOCTYPE svg PUBLIC "-//W3C//DTD SVG 20010904//EN"
 "http://www.w3.org/TR/2001/REC-SVG-20010904/DTD/svg10.dtd">
<svg version="1.0" xmlns="http://www.w3.org/2000/svg"
 width="800.000000pt" height="796.000000pt" viewBox="0 0 800.000000 796.000000"
 preserveAspectRatio="xMidYMid meet">

<g transform="translate(0.000000,796.000000) scale(0.100000,-0.100000)"
fill="#000000" stroke="none">
<path d="M3865 7907 c-60 -30 -767 -377 -1570 -771 -885 -435 -1471 -729
-1489 -746 -27 -26 -45 -100 -418 -1766 -325 -1453 -388 -1745 -381 -1774 13
-53 2173 -2813 2218 -2834 30 -14 213 -16 1775 -16 1566 0 1745 2 1775 16 45
21 2205 2781 2218 2834 7 29 -56 322 -381 1774 -373 1665 -391 1740 -418 1767
-36 35 -3134 1559 -3184 1566 -28 4 -57 -6 -145 -50z m1623 -962 c811 -398
1480 -729 1487 -735 7 -6 18 -38 24 -71 7 -34 15 -67 18 -75 4 -12 -95 -14
-663 -14 l-669 1 -107 147 c-403 556 -819 910 -1231 1046 -244 80 -515 79
-755 -5 -418 -147 -832 -504 -1236 -1066 l-88 -123 -645 0 c-549 0 -644 2
-640 14 3 8 11 41 18 75 6 33 17 65 24 71 21 18 2960 1459 2975 1460 8 0 678
-326 1488 -725z m-1534 244 c6 -5 3 -11 -6 -14 -24 -9 -123 -1 -123 10 0 22
106 25 129 4z m169 4 c22 -13 0 -23 -50 -23 -60 0 -102 14 -73 24 8 2 22 7 30
9 15 5 78 -2 93 -10z m-340 -13 c6 0 4 -7 -5 -17 -11 -10 -39 -18 -75 -21 -55
-4 -57 -3 -42 13 18 18 75 35 97 29 8 -2 19 -4 25 -4z m462 -3 c34 -9 51 -19
53 -31 4 -16 -1 -18 -35 -11 -48 8 -85 26 -91 43 -5 15 10 15 73 -1z m-625
-48 c0 -11 -66 -43 -114 -55 -44 -11 -29 16 24 44 47 23 90 29 90 11z m804
-12 c44 -24 58 -47 29 -47 -26 1 -95 34 -112 53 -12 15 -10 17 15 17 16 0 47
-10 68 -23z m-464 -537 l0 -530 -70 0 -70 0 0 530 0 530 70 0 70 0 0 -530z
m123 520 l47 0 0 -525 0 -526 -67 3 -68 3 -3 529 -2 528 22 -6 c13 -3 44 -6
71 -6z m-293 -524 c0 -283 -3 -517 -8 -520 -4 -2 -34 -6 -67 -7 l-60 -3 -3
506 -2 506 32 11 c30 9 65 16 96 20 9 1 12 -108 12 -513z m473 493 l37 -10 0
-504 0 -503 -66 -4 c-36 -1 -68 -1 -70 1 -7 7 -4 1027 2 1034 7 7 22 4 97 -14z
m-819 -14 c-3 -8 -29 -26 -57 -40 -89 -44 -102 -27 -19 26 50 32 85 38 76 14z
m1134 -9 c27 -14 54 -32 61 -40 12 -14 10 -16 -11 -16 -27 0 -118 54 -118 70
0 16 16 12 68 -14z m-958 -501 l0 -496 -67 3 -68 3 -3 470 -2 470 52 22 c97
39 88 89 88 -472z m798 470 l52 -24 0 -471 0 -470 -70 0 -70 0 0 418 c0 441 6
572 24 572 6 0 35 -11 64 -25z m-1140 -47 c-6 -17 -127 -102 -135 -94 -9 8 16
35 67 72 46 35 75 43 68 22z m1500 -47 c42 -31 54 -51 29 -51 -22 0 -127 80
-127 96 0 13 3 13 28 0 15 -8 46 -28 70 -45z m-241 37 c15 -7 45 -23 66 -35
l37 -23 0 -425 0 -425 -64 0 c-58 0 -64 2 -70 23 -7 25 -8 897 -1 897 2 0 17
-5 32 -12z m-1095 -48 c3 -25 7 -228 7 -452 l1 -408 -70 0 -70 0 0 425 0 425
48 30 c61 39 75 36 84 -20z m-169 -851 c-5 -4 -36 -9 -70 -11 l-63 -4 0 345
c0 205 4 361 10 383 9 29 22 44 68 72 l57 35 3 -407 c1 -223 -1 -409 -5 -413z
m1515 743 l32 -24 0 -364 0 -364 -70 0 -70 0 0 416 0 416 38 -28 c20 -15 52
-39 70 -52z m-1690 36 c-20 -30 -127 -113 -135 -105 -8 9 21 41 80 88 54 43
77 50 55 17z m1848 -49 c62 -63 33 -66 -39 -5 -37 32 -65 62 -61 67 8 13 56
-17 100 -62z m-30 -85 l64 -56 0 -299 0 -299 -70 0 -70 0 0 355 c0 195 3 355
6 355 4 0 35 -25 70 -56z m-1811 14 c3 -13 4 -167 3 -343 l-3 -320 -66 -3 -66
-3 -6 77 c-4 42 -7 174 -7 293 l-1 216 58 52 c64 58 80 64 88 31z m-195 -46
c-12 -16 -42 -46 -66 -66 -70 -58 -55 -15 18 55 63 60 88 66 48 11z m2186 -16
c61 -61 77 -86 54 -86 -12 0 -90 78 -121 121 -36 51 0 32 67 -35z m-2157 -478
l1 -128 -70 0 -70 0 0 218 0 219 63 59 62 59 6 -150 c4 -82 7 -207 8 -277z
m2159 359 l62 -63 -2 -209 -3 -210 -66 -3 -66 -3 -7 62 c-14 139 -5 489 13
489 4 0 35 -28 69 -63z m214 -115 c11 -18 18 -35 15 -38 -10 -10 -136 139
-137 161 0 14 98 -85 122 -123z m-2552 108 c0 -13 -121 -142 -128 -136 -7 7
24 52 71 103 39 42 57 53 57 33z m5 -307 l-7 -173 -48 0 c-27 0 -55 -3 -64 -6
-14 -5 -16 10 -16 125 l0 131 68 71 c81 87 77 95 67 -148z m2551 70 c9 -22 14
-67 14 -138 l0 -105 -70 0 -70 0 0 198 0 197 56 -60 c30 -33 62 -74 70 -92z
m-2732 36 c-20 -40 -126 -180 -131 -175 -8 7 28 69 79 139 52 70 80 89 52 36z
m2882 -97 c35 -52 40 -77 10 -53 -23 19 -116 158 -116 173 1 16 58 -49 106
-120z m-2870 -169 c-6 -15 -136 -19 -136 -5 0 12 76 121 109 155 l26 28 3 -82
c2 -45 1 -88 -2 -96z m2855 62 l50 -70 -57 -3 c-85 -5 -84 -6 -84 100 l0 93
21 -25 c11 -14 43 -56 70 -95z m-3046 -40 c-19 -36 -35 -46 -35 -21 0 17 40
69 48 61 3 -3 -2 -21 -13 -40z m3164 9 c12 -20 19 -39 16 -43 -9 -8 -55 46
-55 65 0 25 17 15 39 -22z m-4521 -116 c-2 -19 -10 -24 -45 -26 -43 -3 -49 2
-37 32 4 11 19 16 46 16 35 0 39 -2 36 -22z m157 10 c40 -18 24 -33 -42 -36
-60 -3 -94 13 -78 38 8 14 88 13 120 -2z m190 -13 c0 -17 -8 -20 -59 -23 -62
-3 -83 6 -72 33 5 13 18 15 68 13 55 -3 63 -5 63 -23z m169 4 c13 -12 -38 -29
-90 -29 -32 0 -44 4 -44 15 0 29 106 40 134 14z m127 11 c37 -21 23 -40 -30
-40 -51 0 -67 10 -57 35 6 17 58 20 87 5z m184 -15 c0 -17 -8 -20 -59 -23 -62
-3 -83 6 -72 33 5 13 18 15 68 13 55 -3 63 -5 63 -23z m180 0 c0 -18 -8 -20
-64 -23 -70 -3 -92 7 -71 33 10 12 28 15 74 13 53 -3 61 -6 61 -23z m170 15
c14 -23 -17 -40 -71 -40 -54 0 -70 10 -60 35 6 18 121 21 131 5z m115 -4 c0
-16 -28 -42 -36 -33 -8 7 14 47 26 47 6 0 10 -6 10 -14z m80 -11 c0 -16 -6
-25 -15 -25 -16 0 -19 9 -9 34 9 25 24 19 24 -9z m158 15 c21 0 13 -27 -10
-34 -35 -9 -106 -7 -112 3 -12 20 47 43 89 35 11 -2 26 -4 33 -4z m163 0 c10
-6 19 -18 19 -26 0 -12 -12 -14 -62 -12 -57 3 -63 5 -66 26 -3 20 1 22 43 22
25 0 55 -5 66 -10z m189 -15 c0 -24 -2 -25 -65 -25 -63 0 -65 1 -65 25 0 24 2
25 65 25 63 0 65 -1 65 -25z m158 15 c6 0 12 -6 12 -14 0 -17 -31 -26 -88 -26
-36 0 -43 3 -40 17 3 19 49 34 83 27 11 -2 26 -4 33 -4z m183 -7 c21 -21 -2
-33 -61 -33 -60 0 -76 9 -66 37 5 12 18 15 62 11 30 -3 60 -10 65 -15z m174
-8 c0 -17 -8 -20 -59 -23 -62 -3 -83 6 -72 33 5 13 18 15 68 13 55 -3 63 -5
63 -23z m169 4 c13 -12 -38 -29 -90 -29 -32 0 -44 4 -44 15 0 29 106 40 134
14z m167 4 c21 -21 -2 -33 -61 -33 -60 0 -76 9 -66 37 5 12 18 15 62 11 30 -3
60 -10 65 -15z m174 -8 c0 -17 -8 -20 -59 -23 -62 -3 -83 6 -72 33 5 13 18 15
68 13 55 -3 63 -5 63 -23z m157 14 c21 -11 21 -12 3 -25 -22 -16 -111 -19
-120 -4 -4 6 -4 17 -1 25 7 18 87 20 118 4z m169 1 c10 -6 19 -17 19 -25 0
-12 -14 -15 -64 -15 -64 0 -79 8 -68 38 5 15 85 16 113 2z m184 -15 c0 -17 -8
-20 -59 -23 -62 -3 -83 6 -72 33 5 13 18 15 68 13 55 -3 63 -5 63 -23z m153
19 c12 -4 22 -12 22 -19 0 -24 -106 -35 -127 -14 -31 31 35 51 105 33z m197
-19 c0 -17 -8 -20 -59 -23 -62 -3 -83 6 -72 33 5 13 18 15 68 13 55 -3 63 -5
63 -23z m165 0 c0 -24 -2 -25 -65 -25 -63 0 -65 1 -65 25 0 24 2 25 65 25 63
0 65 -1 65 -25z m156 15 c42 -16 14 -34 -54 -35 -52 0 -57 2 -60 23 -3 20 1
22 42 22 24 0 57 -5 72 -10z m189 -15 c0 -17 -8 -20 -59 -23 -62 -3 -83 6 -72
33 5 13 18 15 68 13 55 -3 63 -5 63 -23z m170 0 c0 -18 -7 -20 -64 -20 -43 0
-66 4 -69 13 -6 18 36 32 88 29 38 -2 45 -5 45 -22z m155 -12 c0 -24 -25 -9
-28 17 -3 21 -2 22 12 11 9 -7 16 -20 16 -28z m205 12 c0 -17 -8 -20 -54 -23
-57 -3 -78 7 -67 33 4 13 18 15 63 13 50 -3 58 -6 58 -23z m180 0 c0 -18 -7
-20 -69 -20 -47 0 -71 4 -74 13 -6 18 36 31 93 29 43 -2 50 -5 50 -22z m157
14 c21 -11 21 -12 3 -25 -22 -16 -111 -19 -120 -4 -4 6 -4 17 -1 25 7 18 87
20 118 4z m158 -14 c0 -23 -3 -25 -49 -25 -51 0 -67 10 -57 35 4 11 21 15 56
15 47 0 50 -2 50 -25z m168 3 c-3 -20 -10 -23 -57 -26 -29 -2 -61 0 -70 3 -14
6 -13 9 8 26 16 13 39 19 73 19 46 0 49 -2 46 -22z m160 6 c33 -23 18 -34 -47
-34 -59 0 -90 17 -76 40 10 16 98 12 123 -6z m184 4 c11 -30 -4 -38 -68 -38
-62 0 -64 1 -64 25 0 24 2 25 64 25 42 0 65 -4 68 -12z m168 -13 c0 -24 -2
-25 -65 -25 -50 0 -65 3 -65 15 0 22 30 34 83 35 44 0 47 -2 47 -25z m-1470
-6 c10 -18 9 -20 -7 -17 -10 2 -19 11 -21 21 -5 24 15 21 28 -4z m-4510 -309
c0 -49 -3 -90 -7 -89 -5 0 -33 17 -63 37 -50 34 -55 41 -58 79 -3 46 -1 48 78
56 19 2 38 5 43 5 4 1 7 -38 7 -88z m5470 -182 l-1 -273 -62 -78 c-50 -62 -63
-74 -69 -60 -9 23 -10 296 -1 506 l6 166 56 4 c31 2 59 4 64 5 4 1 7 -121 7
-270z m506 177 c-7 -27 -121 -92 -128 -73 -3 7 -3 45 0 85 l4 72 62 3 61 3 3
-34 c2 -19 1 -44 -2 -56z m-5802 69 c9 -24 7 -284 -2 -284 -4 0 -38 25 -75 55
l-67 55 0 64 c0 35 3 78 6 95 6 31 7 31 69 31 48 0 64 -4 69 -16z m176 -231
l-1 -248 -69 75 -70 75 0 173 0 172 70 0 70 0 0 -247z m480 52 l0 -195 -62
-142 c-34 -79 -65 -147 -70 -152 -4 -6 -8 146 -8 337 l0 347 70 0 70 0 0 -195z
m173 162 c-1 -16 -33 -85 -70 -155 l-68 -126 -3 144 c-1 79 0 150 3 158 3 9
23 12 72 10 68 -3 68 -3 66 -31z m88 -45 c-31 -61 -51 -85 -51 -60 0 19 74
142 78 130 2 -6 -11 -37 -27 -70z m3636 -35 c128 -232 370 -749 417 -894 10
-29 21 -53 24 -53 4 0 19 22 35 49 15 27 64 105 110 173 208 311 456 560 662
661 85 42 92 44 99 20 2 -10 138 -615 301 -1344 l296 -1327 -507 -648 c-457
-587 -551 -704 -530 -667 6 12 -3 11 -152 -8 -40 -5 -77 -9 -82 -9 -9 0 -116
318 -375 1120 -87 267 -163 495 -171 507 -8 13 -23 23 -32 23 -10 0 -32 16
-49 35 -40 45 -93 49 -119 9 -16 -23 -17 -88 -10 -860 l7 -834 -153 0 c-111 0
-216 8 -383 30 -225 29 -613 65 -828 76 l-108 6 2 50 c3 46 1 52 -25 65 -15 8
-68 20 -117 26 -90 11 -202 3 -321 -24 l-48 -11 0 -53 0 -53 -107 -6 c-256
-15 -539 -38 -678 -57 -311 -40 -404 -49 -536 -49 l-136 0 -6 137 c-4 75 -8
429 -8 787 -1 358 -4 683 -8 721 l-6 70 -33 3 c-37 4 -82 -20 -82 -43 0 -8
-12 -17 -27 -21 -16 -3 -33 -7 -38 -9 -6 -1 -59 -153 -118 -336 -289 -891
-420 -1285 -430 -1295 -13 -12 -196 1 -208 14 -4 4 -235 299 -513 656 l-507
648 297 1332 c164 732 299 1333 302 1336 7 9 136 -66 225 -133 175 -131 329
-306 513 -584 58 -87 110 -158 117 -158 6 0 31 47 55 105 98 239 323 709 410
858 l43 72 1737 0 1737 0 62 -113z m54 41 c17 -33 28 -62 26 -65 -9 -9 -77
103 -77 127 0 23 21 -3 51 -62z m209 -78 c0 -82 -4 -150 -9 -150 -10 0 -120
230 -127 270 l-6 30 71 0 71 0 0 -150z m165 137 c3 -6 4 -162 3 -344 l-3 -332
-70 157 -70 157 3 188 4 187 64 0 c43 0 66 -4 69 -13z m145 -367 l0 -380 -37
-56 -37 -56 -15 39 c-12 30 -15 117 -19 436 l-4 397 56 0 56 0 0 -380z m515
283 l-7 -98 -56 -52 c-31 -29 -60 -53 -64 -53 -5 0 -8 68 -8 150 l0 150 71 0
70 0 -6 -97z m-5295 -253 c0 -188 -4 -340 -9 -340 -5 0 -36 36 -70 79 l-61 79
0 261 0 261 70 0 70 0 0 -340z m140 -50 c0 -319 -3 -397 -14 -425 -8 -19 -19
-35 -23 -35 -4 0 -25 26 -46 59 l-37 58 7 366 6 367 54 0 53 0 0 -390z m4984
353 c3 -21 6 -94 6 -163 l0 -126 -68 -67 c-37 -37 -71 -64 -75 -61 -4 4 -7
108 -7 231 l0 223 69 0 68 0 7 -37z m400 21 c11 -29 6 -44 -14 -44 -11 0 -20
6 -20 14 0 21 11 46 20 46 4 0 11 -7 14 -16z m-5072 -270 c-69 -142 -93 -186
-99 -181 -5 6 88 211 116 256 31 50 20 1 -17 -75z m3945 -29 c25 -49 52 -108
59 -130 13 -37 13 -39 -2 -20 -20 24 -134 256 -134 270 1 18 31 -29 77 -120z
m205 -448 c44 -108 46 -157 4 -62 -44 96 -106 254 -106 268 1 19 58 -97 102
-206z m-4342 58 c-54 -135 -89 -208 -90 -188 -1 30 131 344 137 326 2 -6 -19
-68 -47 -138z m295 -1821 c22 -9 37 -49 29 -81 -7 -25 -8 -25 -30 18 -22 41
-30 69 -20 69 2 0 12 -3 21 -6z m3725 -9 c0 -21 -25 -68 -44 -84 -27 -22 -21
47 6 76 25 27 38 29 38 8z m-3750 -82 c0 -7 -11 -13 -25 -13 -28 0 -30 6 -14
47 l11 28 13 -25 c8 -14 14 -31 15 -37z m3794 31 c13 -33 6 -44 -24 -44 -34 0
-36 6 -14 38 18 26 30 28 38 6z m-165 -761 c0 -438 -4 -759 -9 -748 -10 22
-13 1457 -4 1493 4 12 8 22 10 22 2 0 4 -345 3 -767z m-3692 665 c-3 -8 -6 -5
-6 6 -1 11 2 17 5 13 3 -3 4 -12 1 -19z m-3 -116 c11 -39 2 -62 -24 -62 -16 0
-20 6 -20 34 0 70 27 87 44 28z m3925 1 c12 -41 1 -63 -31 -63 -27 0 -32 22
-14 64 19 46 32 46 45 -1z m-3921 -216 l3 -117 59 0 60 0 0 -95 c0 -52 -3 -95
-7 -95 -5 0 -43 30 -85 66 l-78 65 0 143 c0 78 3 146 7 150 4 4 14 5 23 4 12
-3 16 -24 18 -121z m3915 115 c3 -4 8 -68 12 -142 l7 -136 -82 -72 c-46 -39
-87 -69 -91 -66 -5 3 -9 43 -9 88 l0 84 31 6 c17 3 42 6 55 6 24 0 24 2 24 98
0 115 6 142 31 142 10 0 20 -3 22 -8z m-4008 -250 c-3 -3 -17 6 -31 20 l-26
26 28 81 29 81 3 -101 c1 -56 0 -104 -3 -107z m4087 26 c-14 -16 -29 -28 -34
-28 -10 0 -11 99 -1 166 l6 49 27 -80 28 -80 -26 -27z m-4108 -59 c23 -26 26
-40 26 -100 l0 -69 -70 0 c-38 0 -70 1 -70 3 0 7 59 178 65 187 10 17 22 12
49 -21z m4173 -36 c12 -34 25 -77 28 -97 l7 -36 -72 0 -73 0 6 76 c4 61 10 81
28 100 34 36 51 26 76 -43z m-3997 -102 l35 -30 -72 -1 -73 0 0 61 0 61 38
-30 c20 -17 53 -44 72 -61z m3870 24 l0 -55 -72 0 -73 0 57 55 c74 72 88 72
88 0z m-3812 -247 c1 -93 -1 -168 -6 -168 -9 0 -177 144 -297 253 -33 30 -56
59 -52 63 7 7 260 22 332 20 19 -1 20 -9 23 -168z m3992 148 c0 -7 -28 -40
-63 -72 -61 -57 -259 -223 -284 -238 -10 -6 -13 29 -13 158 l0 166 180 0 c147
0 180 -3 180 -14z m-4351 -228 l1 -128 -55 0 c-39 0 -55 4 -55 13 0 21 29 114
63 202 38 100 45 87 46 -87z m4425 8 c20 -60 36 -115 36 -122 0 -10 -15 -14
-55 -14 l-55 0 0 123 c0 67 3 133 7 146 l6 24 12 -24 c7 -13 29 -73 49 -133z
m-4274 25 c58 -49 123 -105 145 -124 l40 -36 -142 -1 c-101 0 -144 3 -149 12
-11 18 -18 238 -8 238 5 0 56 -40 114 -89z m4160 -36 l0 -125 -140 0 c-77 0
-140 4 -140 9 0 9 264 239 278 241 1 0 2 -56 2 -125z m-4160 -276 l0 -120 -27
19 c-44 31 -238 202 -241 213 -2 5 51 9 132 9 l136 0 0 -121z m209 -66 c0
-104 -3 -195 -7 -204 -6 -14 -21 -6 -84 45 l-78 61 0 143 0 142 85 0 85 0 -1
-187z m3806 52 c4 -75 6 -137 4 -139 -37 -31 -171 -136 -174 -136 -3 0 -5 92
-5 205 l0 205 84 0 84 0 7 -135z m305 126 c0 -5 -60 -60 -132 -121 l-133 -111
-7 48 c-3 26 -7 81 -7 121 l-1 72 140 0 c79 0 140 -4 140 -9z m-4548 -93 c29
-23 92 -75 141 -116 l87 -73 0 -65 0 -64 -46 0 c-56 0 -336 39 -346 48 -8 9
90 312 101 312 5 0 33 -19 63 -42z m4583 10 c31 -75 87 -259 82 -271 -5 -14
-266 -57 -343 -57 -40 0 -42 1 -48 39 -11 69 6 94 148 211 72 60 135 110 139
110 4 0 14 -15 22 -32z m-2175 -134 c0 -28 -21 -32 -41 -8 -11 14 -10 18 5 30
24 17 36 10 36 -22z m-130 6 c0 -11 -4 -20 -10 -20 -5 0 -10 9 -10 20 0 11 5
20 10 20 6 0 10 -9 10 -20z m-143 -12 c-3 -8 -6 -5 -6 6 -1 11 2 17 5 13 3 -3
4 -12 1 -19z m-147 -68 c0 -6 -35 -10 -86 -10 -54 0 -83 4 -79 10 3 6 42 10
86 10 46 0 79 -4 79 -10z m685 0 c4 -6 -25 -10 -80 -10 -55 0 -84 4 -80 10 3
6 39 10 80 10 41 0 77 -4 80 -10z m196 0 c57 -6 111 -13 119 -16 38 -14 -21
-20 -114 -13 -116 9 -149 16 -141 29 8 12 10 12 136 0z m-1097 -10 c-14 -14
-272 -26 -259 -12 13 14 51 19 170 21 67 1 96 -2 89 -9z m-314 -20 c-14 -8
-218 -40 -255 -40 -23 0 -17 19 8 25 77 20 274 32 247 15z m1753 -4 c54 -8
101 -17 104 -20 20 -19 -251 6 -271 25 -14 13 52 11 167 -5z m-2874 -50 l35
-36 -52 0 -52 0 0 45 c0 41 2 45 18 36 9 -5 33 -25 51 -45z m3911 9 c0 -12 -5
-26 -12 -33 -14 -14 -88 -16 -88 -3 0 5 19 26 42 45 43 37 58 35 58 -9z m-727
-1 c64 -9 117 -20 117 -25 0 -16 -123 -4 -242 22 -47 11 -60 29 -16 23 13 -2
76 -10 141 -20z m-2383 7 c-16 -10 -214 -41 -257 -41 -53 0 -7 19 82 33 103
17 198 21 175 8z m3820 -5 c0 -2 -8 -10 -17 -17 -16 -13 -17 -12 -4 4 13 16
21 21 21 13z m-4137 -31 c2 -11 -256 -20 -282 -10 -14 5 -14 7 -1 16 20 12
279 7 283 -6z m958 -7 c8 -15 10 -71 7 -186 -4 -137 -8 -166 -22 -180 -16 -16
-19 -15 -46 16 -37 45 -187 338 -177 348 4 5 42 11 85 15 138 11 140 11 153
-13z m380 -62 c51 -106 54 -161 12 -237 -49 -90 -90 -100 -134 -34 -39 58
-189 331 -189 344 0 7 45 11 135 11 l136 0 40 -84z m152 12 c-50 -94 -63 -94
-114 -5 -22 38 -39 71 -39 73 0 2 43 4 96 4 l96 0 -39 -72z m341 64 c6 -10
-154 -311 -191 -359 -43 -59 -86 -39 -137 63 -39 79 -35 108 40 241 l35 63
124 0 c68 0 126 -4 129 -8z m299 -8 c9 -3 17 -10 17 -16 0 -20 -133 -266 -169
-315 -63 -82 -66 -75 -69 151 l-2 198 102 -7 c57 -3 111 -9 121 -11z m1017 1
c0 -13 -22 -15 -139 -15 -127 0 -162 6 -144 24 3 3 69 6 145 6 116 0 138 -2
138 -15z m-2500 -190 c0 -156 -2 -187 -15 -191 -36 -14 -61 6 -102 78 -81 144
-138 256 -133 262 5 5 184 32 233 35 16 1 17 -14 17 -184z m1695 170 c65 -8
123 -15 128 -15 5 0 -12 -39 -38 -87 -126 -235 -164 -283 -200 -253 -12 10
-15 43 -15 191 0 99 1 179 3 179 1 0 56 -7 122 -15z m1708 -56 c-66 -83 -86
-106 -78 -91 4 7 -6 37 -21 67 -16 30 -25 57 -21 61 6 6 83 18 150 23 14 1 7
-14 -30 -60z m-5120 32 c9 -9 -17 -71 -30 -71 -6 0 -16 12 -55 64 l-22 29 49
-6 c27 -4 53 -11 58 -16z m2171 -165 c46 -88 83 -163 80 -168 -6 -9 -128 -11
-161 -2 -23 6 -23 8 -23 177 0 103 4 167 9 162 5 -6 48 -82 95 -169z m766 -1
l0 -175 -77 0 c-116 0 -117 2 -60 112 67 131 127 238 132 238 3 0 5 -79 5
-175z m-2715 147 c92 -14 110 -20 109 -34 -2 -23 -143 -278 -154 -278 -5 0
-29 26 -54 58 l-46 57 0 108 c0 95 2 107 18 106 9 0 67 -8 127 -17z m1175
-152 l0 -170 -34 0 c-69 0 -78 10 -155 160 -40 78 -71 143 -69 144 4 4 204 33
236 35 l22 1 0 -170z m2352 151 c59 -9 110 -20 114 -23 3 -4 -29 -72 -71 -152
l-78 -146 -41 0 c-71 0 -71 0 -74 180 l-3 160 23 0 c13 -1 71 -9 130 -19z
m-1944 -78 c27 -49 66 -120 86 -160 l36 -72 -33 -6 c-17 -4 -57 -5 -87 -3
l-55 3 -3 163 c-1 89 0 162 2 162 3 0 27 -39 54 -87z m3126 71 c3 -9 6 -65 6
-126 0 -104 -2 -112 -27 -149 -22 -30 -35 -39 -58 -39 -33 0 -28 -7 -131 186
-30 55 -54 105 -54 111 0 11 114 29 201 32 44 1 58 -3 63 -15z m-1674 -148 l0
-153 -52 -7 c-147 -17 -147 -16 -47 163 46 83 87 151 91 151 5 0 8 -69 8 -154z
m-1694 -88 c28 -56 31 -67 18 -72 -24 -9 -100 -7 -128 4 l-26 10 0 133 c0 74
3 137 7 140 6 7 70 -98 129 -215z m-1526 160 l0 -52 -21 20 c-20 20 -20 23 -5
53 9 17 19 31 21 31 3 0 5 -23 5 -52z m650 -93 l0 -145 -44 0 c-27 0 -52 7
-64 18 -19 16 -152 247 -152 265 0 4 59 7 130 7 l130 0 0 -145z m356 129 c-13
-35 -119 -216 -139 -240 -26 -29 -89 -43 -112 -24 -12 10 -15 39 -15 146 l0
134 136 0 c122 0 135 -2 130 -16z m3174 -129 l0 -146 -57 3 -57 3 -73 135
c-40 74 -73 138 -73 143 0 4 59 7 130 7 l130 0 0 -145z m40 9 c0 -87 -4 -133
-10 -129 -6 4 -10 58 -10 129 0 108 3 136 17 136 2 0 3 -61 3 -136z m261 16
c-83 -147 -102 -170 -140 -170 -61 0 -61 -1 -61 151 l0 139 134 0 135 0 -68
-120z m485 69 l25 -51 -23 -27 c-12 -14 -26 -30 -30 -35 -5 -6 -8 29 -8 77 0
48 2 87 5 87 2 0 16 -23 31 -51z m-1436 -93 l0 -134 -65 -7 c-76 -8 -100 -2
-91 23 14 37 140 252 148 252 4 0 8 -60 8 -134z m-3204 -133 c-2 -3 -32 -7
-67 -10 -59 -6 -62 -5 -57 15 3 11 32 69 64 129 l59 108 3 -119 c1 -65 1 -121
-2 -123z m118 101 c56 -109 55 -114 -31 -114 l-53 0 0 128 c0 149 1 149 84
-14z m596 11 l0 -125 -52 0 c-86 0 -88 6 -39 102 49 93 81 148 87 148 2 0 4
-56 4 -125z m104 4 c31 -58 56 -111 56 -117 0 -13 -49 -16 -99 -6 l-31 7 0
120 c0 71 4 117 9 112 5 -6 34 -58 65 -116z m2711 -56 l-6 -61 -39 -7 c-22 -4
-49 -4 -60 0 -27 9 -22 24 49 150 l56 100 3 -60 c2 -33 1 -88 -3 -122z m113
52 c33 -60 58 -113 55 -117 -6 -11 -77 -10 -107 2 -26 9 -26 10 -26 127 0 70
4 113 9 108 5 -6 36 -59 69 -120z m713 -8 c58 -113 57 -117 -28 -117 l-53 0 0
128 c1 148 -1 148 81 -11z m-121 3 l0 -120 -52 0 c-29 0 -58 4 -65 8 -8 5 7
41 50 120 34 61 63 112 64 112 2 0 3 -54 3 -120z m-2073 -32 c28 -31 45 -66
38 -78 -7 -11 -84 -14 -109 -4 -17 6 -10 34 20 79 20 31 25 31 51 3z m-2168
-124 c10 -9 -9 -14 -65 -19 -64 -7 -102 6 -74 25 13 9 128 4 139 -6z m194 0
c37 -11 3 -24 -61 -24 -74 0 -108 13 -82 30 14 10 101 6 143 -6z m126 7 c20
-13 4 -31 -28 -31 -32 0 -61 25 -39 33 21 8 52 7 67 -2z m191 -6 c0 -19 -67
-32 -83 -16 -16 16 8 31 51 31 21 0 32 -5 32 -15z m200 5 c26 -17 -8 -30 -82
-30 -66 0 -100 15 -56 24 74 17 119 18 138 6z m203 -10 c12 -11 -97 -23 -133
-15 -33 7 -39 21 -12 28 23 7 135 -3 145 -13z m116 11 c20 -13 4 -31 -28 -31
-32 0 -61 25 -39 33 21 8 52 7 67 -2z m227 -8 c49 -18 -77 -32 -155 -17 -34 7
-41 20 -13 28 19 5 146 -2 168 -11z m92 -6 c2 -10 -3 -17 -12 -17 -18 0 -29
16 -21 31 9 14 29 6 33 -14z m248 10 c18 -17 -25 -27 -105 -25 -53 2 -86 7
-88 15 -2 6 4 14 14 16 27 8 170 3 179 -6z m71 -13 c-9 -9 -28 6 -21 18 4 6
10 6 17 -1 6 -6 8 -13 4 -17z m240 15 c22 -8 24 -12 13 -19 -17 -11 -169 -13
-194 -4 -21 8 -20 21 2 27 34 9 151 7 179 -4z m93 -4 c0 -8 -7 -15 -15 -15
-16 0 -20 12 -8 23 11 12 23 8 23 -8z m238 0 c4 -3 0 -10 -8 -16 -20 -12 -176
-7 -173 6 5 19 163 28 181 10z m73 2 c-1 -12 -15 -9 -19 4 -3 6 1 10 8 8 6 -3
11 -8 11 -12z m267 -1 c15 -16 -28 -26 -108 -26 -88 0 -137 13 -89 24 64 15
183 16 197 2z m72 5 c0 -5 -7 -14 -15 -21 -12 -10 -15 -10 -15 2 0 8 3 18 7
21 9 10 23 9 23 -2z m324 0 c9 -15 -23 -36 -36 -23 -5 5 -7 15 -4 21 9 13 33
14 40 2z m225 -7 c10 -10 -12 -15 -86 -21 -59 -4 -82 -2 -88 7 -14 22 19 31
95 24 41 -4 77 -8 79 -10z m120 7 c11 -7 10 -11 -7 -20 -25 -13 -42 -14 -62
-1 -13 9 -13 11 0 20 19 12 50 13 69 1z m210 0 c20 -13 1 -20 -76 -27 -47 -4
-72 -3 -77 4 -7 12 11 18 69 25 55 7 70 7 84 -2z m190 0 c26 -17 -1 -31 -59
-31 -61 0 -90 7 -90 20 0 17 125 26 149 11z m136 -11 c0 -19 -51 -26 -71 -9
-12 10 -12 14 -2 21 21 13 73 5 73 -12z m182 3 c5 -15 -56 -28 -69 -15 -6 6
-7 15 -3 22 9 14 67 9 72 -7z m199 4 c22 -22 -92 -39 -140 -21 -23 9 -20 22 7
27 28 7 125 2 133 -6z m198 -4 c34 -10 -5 -23 -69 -23 -68 0 -100 13 -75 30
14 10 101 6 144 -7z m-1550 -2 c6 -9 -73 -21 -141 -21 -41 0 -65 14 -41 23 22
9 177 7 182 -2z m1016 -1 c0 -5 -2 -10 -4 -10 -3 0 -8 5 -11 10 -3 6 -1 10 4
10 6 0 11 -4 11 -10z m-3610 -267 c0 -154 5 -166 55 -139 34 19 36 19 70 0 50
-27 55 -15 55 139 l0 127 1680 0 1680 0 0 -140 c0 -77 2 -140 4 -140 2 0 20 7
40 15 33 14 39 14 66 0 17 -9 34 -13 39 -10 5 2 12 66 16 140 l7 135 190 0
189 0 -57 -72 c-31 -40 -156 -200 -277 -355 l-221 -283 -1656 0 -1656 0 -221
283 c-121 155 -246 315 -277 355 l-57 72 165 0 166 0 0 -127z"/>
<path d="M3942 7498 c-17 -17 -15 -32 6 -51 27 -25 32 -21 32 23 0 41 -14 52
-38 28z"/>
</g>
</svg>
