<?xml version="1.0" standalone="no"?>
<!DOCTYPE svg PUBLIC "-//W3C//DTD SVG 20010904//EN"
 "http://www.w3.org/TR/2001/REC-SVG-20010904/DTD/svg10.dtd">
<svg version="1.0" xmlns="http://www.w3.org/2000/svg"
 width="800.000000pt" height="800.000000pt" viewBox="0 0 800.000000 800.000000"
 preserveAspectRatio="xMidYMid meet">
<metadata>
Created by potrace 1.11, written by Peter Selinger 2001-2013
</metadata>
<g transform="translate(0.000000,800.000000) scale(0.100000,-0.100000)"
fill="#000000" stroke="none">
<path d="M3670 7834 c-162 -80 -403 -199 -535 -264 -132 -65 -379 -186 -550
-270 -524 -258 -910 -447 -1140 -560 -465 -228 -630 -311 -645 -328 -21 -23
-47 -110 -74 -252 -5 -29 -129 -583 -151 -677 -8 -35 -22 -93 -31 -130 -9 -38
-18 -81 -21 -98 -2 -16 -15 -75 -28 -130 -29 -126 -44 -194 -49 -220 -2 -11
-9 -38 -14 -60 -10 -37 -13 -52 -27 -123 -3 -15 -8 -34 -10 -42 -2 -8 -7 -30
-10 -49 -3 -19 -8 -37 -10 -41 -2 -4 -7 -22 -10 -41 -3 -19 -10 -50 -15 -69
-5 -19 -11 -46 -14 -60 -2 -14 -14 -68 -26 -120 -27 -121 -24 -106 -54 -245
-15 -66 -37 -165 -51 -220 -13 -55 -26 -113 -29 -130 -10 -55 -46 -216 -60
-273 -8 -31 -17 -68 -19 -82 -3 -14 -26 -118 -51 -232 -26 -114 -45 -219 -42
-235 2 -15 5 -31 5 -34 1 -4 20 -31 44 -61 23 -31 53 -70 67 -88 21 -27 254
-326 358 -459 145 -185 659 -843 675 -865 12 -15 34 -42 48 -60 14 -17 82
-103 150 -191 68 -88 129 -167 136 -175 6 -8 38 -49 70 -90 33 -41 93 -118
134 -170 41 -52 90 -115 109 -140 19 -25 40 -52 47 -60 7 -8 74 -94 149 -190
194 -250 196 -252 231 -267 50 -21 3512 -19 3552 2 31 16 41 28 191 220 55 72
106 137 113 145 12 15 206 263 261 335 17 22 33 42 37 45 3 3 18 23 34 45 17
22 32 42 35 45 3 3 46 57 95 120 139 180 618 793 632 810 7 8 81 103 164 210
84 107 184 236 223 285 323 413 426 547 427 553 8 48 6 78 -7 137 -9 39 -17
77 -19 85 -2 8 -42 188 -90 400 -47 212 -88 395 -91 407 -2 12 -27 122 -54
245 -28 123 -58 255 -66 293 -8 39 -17 77 -19 85 -2 8 -17 78 -35 155 -17 77
-33 147 -35 155 -2 12 -84 379 -150 680 -2 8 -18 76 -35 150 -17 74 -38 167
-46 205 -8 39 -17 77 -18 85 -2 8 -25 110 -51 225 -26 116 -54 223 -64 240
-19 33 -12 29 -621 328 -650 320 -920 452 -1215 597 -357 176 -851 418 -1119
550 -134 66 -224 104 -250 106 -36 4 -76 -13 -336 -142z"/>
</g>
</svg>
